<?xml version="1.0" encoding="UTF-8" standalone="no"?>
<!-- Generator: Adobe Illustrator 19.0.0, SVG Export Plug-In . SVG Version: 6.00 Build 0)  -->

<svg
   version="1.1"
   id="Capa_1"
   x="0px"
   y="0px"
   viewBox="0 0 58 58"
   style="enable-background:new 0 0 58 58;"
   xml:space="preserve"
   sodipodi:docname="list_background.svg"
   inkscape:version="1.3.2 (091e20e, 2023-11-25, custom)"
   inkscape:export-filename="..\..\..\..\..\list_background.png"
   inkscape:export-xdpi="510.5976"
   inkscape:export-ydpi="510.5976"
   xmlns:inkscape="http://www.inkscape.org/namespaces/inkscape"
   xmlns:sodipodi="http://sodipodi.sourceforge.net/DTD/sodipodi-0.dtd"
   xmlns:xlink="http://www.w3.org/1999/xlink"
   xmlns="http://www.w3.org/2000/svg"
   xmlns:svg="http://www.w3.org/2000/svg"
   xmlns:rdf="http://www.w3.org/1999/02/22-rdf-syntax-ns#"
   xmlns:cc="http://creativecommons.org/ns#"
   xmlns:dc="http://purl.org/dc/elements/1.1/"><metadata
   id="metadata57"><rdf:RDF><cc:Work
       rdf:about=""><dc:format>image/svg+xml</dc:format><dc:type
         rdf:resource="http://purl.org/dc/dcmitype/StillImage" /><dc:title /></cc:Work></rdf:RDF></metadata><defs
   id="defs55"><linearGradient
     inkscape:collect="always"
     id="linearGradient1105"><stop
       style="stop-color:#019ac9;stop-opacity:1"
       offset="0"
       id="stop1101" /><stop
       style="stop-color:#91e5fd;stop-opacity:1"
       offset="1"
       id="stop1103" /></linearGradient><clipPath
     id="clipPath1774"
     clipPathUnits="userSpaceOnUse"><path
       inkscape:connector-curvature="0"
       style="opacity:1;fill-opacity:1;stroke:none;stroke-width:25.65397453;stroke-linecap:round;stroke-linejoin:round;stroke-miterlimit:4;stroke-dasharray:none;stroke-opacity:1;paint-order:stroke markers fill"
       d="M 576.85567,1.9102362e-4 A 576.85532,580.7395 0 0 0 2.5984252e-4,580.7404 576.85532,580.7395 0 0 0 576.85567,1161.4786 576.85532,580.7395 0 0 0 919.00807,1047.4709 l 149.03903,132.1347 a 79.092908,79.62547 0 1 0 104.5372,-119.5098 L 1032.4261,935.8381 A 576.85532,580.7395 0 0 0 1153.7111,580.7404 576.85532,580.7395 0 0 0 576.85567,1.9102362e-4 Z m 0,71.91010097638 A 505.4261,508.82934 0 0 1 1082.2814,580.7384 505.4261,508.82934 0 0 1 576.85567,1089.5686 505.4261,508.82934 0 0 1 71.429861,580.7384 505.4261,508.82934 0 0 1 576.85567,71.910292 Z"
       id="path1776" /></clipPath><linearGradient
     y2="77.428459"
     x2="74.762482"
     y1="20.78064"
     x1="37.623547"
     gradientTransform="matrix(2.6770173,0,0,2.6770171,-93.052904,-5.1936417)"
     gradientUnits="userSpaceOnUse"
     id="linearGradient4300"
     xlink:href="#linearGradient1105"
     inkscape:collect="always" /></defs><sodipodi:namedview
   pagecolor="#ffffff"
   bordercolor="#666666"
   borderopacity="1"
   objecttolerance="10"
   gridtolerance="10"
   guidetolerance="10"
   inkscape:pageopacity="0"
   inkscape:pageshadow="2"
   inkscape:window-width="1920"
   inkscape:window-height="1009"
   id="namedview53"
   showgrid="false"
   inkscape:zoom="14.017241"
   inkscape:cx="28.96433"
   inkscape:cy="29"
   inkscape:current-layer="Capa_1"
   inkscape:showpageshadow="2"
   inkscape:pagecheckerboard="0"
   inkscape:deskcolor="#d1d1d1"
   inkscape:window-x="-8"
   inkscape:window-y="-8"
   inkscape:window-maximized="1" />
<path
   style="fill:#434a61;stroke-width:0.93033189;opacity:0.45"
   d="M 46.324,53.8 H 1.565 c -1.03,0 -1.779,-0.84648 -1.51,-1.707664 L 10.221,27.969508 c 0.184,-0.59029 0.803,-1.000544 1.51,-1.000544 H 56.49 c 1.03,0 1.51,0.851672 1.51,1.70767 L 47.834,52.799465 C 47.65,53.389741 47.031,53.8 46.324,53.8 Z"
   id="path2"
   inkscape:connector-curvature="0"
   inkscape:export-xdpi="510.5976"
   inkscape:export-ydpi="510.5976" />
<path
   style="fill:#434a61;stroke-width:0.93033189;opacity:0.3"
   d="M 50.268,19.179316 H 48 v 7.789648 h 4 v -6.290576 c 0,-0.8283 -0.776,-1.499072 -1.732,-1.499072 z"
   id="path4"
   inkscape:connector-curvature="0"
   inkscape:export-xdpi="510.5976"
   inkscape:export-ydpi="510.5976" />
<path
   style="fill:#434a61;stroke-width:0.93033189;opacity:0.3"
   d="M 4,13.120678 H 1.732 C 0.776,13.120678 0,13.791464 0,14.619764 v 36.981824 c 0.069,0.002 0.138,0.0049 0.205,0.0082 L 4,42.653866 Z"
   id="path6"
   inkscape:connector-curvature="0"
   inkscape:export-xdpi="510.5976"
   inkscape:export-ydpi="510.5976" />
<path
   style="fill:#667193;stroke-width:0.93033189;opacity:1"
   d="m 10.221,27.969508 c 0.184,-0.59029 0.803,-1.000544 1.51,-1.000544 h 2 H 48 V 16.582762 3.6 H 33 10 v 24.893138 z"
   id="path8"
   inkscape:connector-curvature="0"
   inkscape:export-xdpi="510.5976"
   inkscape:export-ydpi="510.5976" />
<g
   id="g16"
   transform="matrix(1,0,0,0.8655172,0,3.6)"
   inkscape:export-xdpi="510.5976"
   inkscape:export-ydpi="510.5976"
   style="opacity:1">
	<path
   style="fill:#ffffff;fill-opacity:1"
   d="m 17,16 h 24 c 0.552,0 1,-0.447 1,-1 0,-0.553 -0.448,-1 -1,-1 H 17 c -0.552,0 -1,0.447 -1,1 0,0.553 0.448,1 1,1 z"
   id="path10"
   inkscape:connector-curvature="0" />
	<path
   style="fill:#ffffff;fill-opacity:1"
   d="M 17,9 H 27 C 27.552,9 28,8.553 28,8 28,7.447 27.552,7 27,7 H 17 c -0.552,0 -1,0.447 -1,1 0,0.553 0.448,1 1,1 z"
   id="path12"
   inkscape:connector-curvature="0" />
	<path
   style="fill:#ffffff;fill-opacity:1"
   d="M 41,21 H 17 c -0.552,0 -1,0.447 -1,1 0,0.553 0.448,1 1,1 h 24 c 0.552,0 1,-0.447 1,-1 0,-0.553 -0.448,-1 -1,-1 z"
   id="path14"
   inkscape:connector-curvature="0" />
</g>
<polygon
   style="fill:#667193;opacity:1"
   points="10,28.761 10,2 7,2 7,36.986 "
   id="polygon18"
   transform="matrix(1,0,0,0.8655172,0,3.6)"
   inkscape:export-xdpi="510.5976"
   inkscape:export-ydpi="510.5976" />
<polygon
   style="fill:#667193;opacity:1"
   points="7,36.986 7,4 4,4 4,45.211 "
   id="polygon20"
   transform="matrix(1,0,0,0.8655172,0,3.6)"
   inkscape:export-xdpi="510.5976"
   inkscape:export-ydpi="510.5976" />
<g
   id="g22"
   transform="matrix(1,0,0,0.8655172,0,3.6)"
   inkscape:export-xdpi="510.5976"
   inkscape:export-ydpi="510.5976"
   style="opacity:1">
</g>
<g
   id="g24"
   transform="matrix(1,0,0,0.8655172,0,3.6)"
   inkscape:export-xdpi="510.5976"
   inkscape:export-ydpi="510.5976"
   style="opacity:1">
</g>
<g
   id="g26"
   transform="matrix(1,0,0,0.8655172,0,3.6)"
   inkscape:export-xdpi="510.5976"
   inkscape:export-ydpi="510.5976"
   style="opacity:1">
</g>
<g
   id="g28"
   transform="matrix(1,0,0,0.8655172,0,3.6)"
   inkscape:export-xdpi="510.5976"
   inkscape:export-ydpi="510.5976"
   style="opacity:1">
</g>
<g
   id="g30"
   transform="matrix(1,0,0,0.8655172,0,3.6)"
   inkscape:export-xdpi="510.5976"
   inkscape:export-ydpi="510.5976"
   style="opacity:1">
</g>
<g
   id="g32"
   transform="matrix(1,0,0,0.8655172,0,3.6)"
   inkscape:export-xdpi="510.5976"
   inkscape:export-ydpi="510.5976"
   style="opacity:1">
</g>
<g
   id="g34"
   transform="matrix(1,0,0,0.8655172,0,3.6)"
   inkscape:export-xdpi="510.5976"
   inkscape:export-ydpi="510.5976"
   style="opacity:1">
</g>
<g
   id="g36"
   transform="matrix(1,0,0,0.8655172,0,3.6)"
   inkscape:export-xdpi="510.5976"
   inkscape:export-ydpi="510.5976"
   style="opacity:1">
</g>
<g
   id="g38"
   transform="matrix(1,0,0,0.8655172,0,3.6)"
   inkscape:export-xdpi="510.5976"
   inkscape:export-ydpi="510.5976"
   style="opacity:1">
</g>
<g
   id="g40"
   transform="matrix(1,0,0,0.8655172,0,3.6)"
   inkscape:export-xdpi="510.5976"
   inkscape:export-ydpi="510.5976"
   style="opacity:1">
</g>
<g
   id="g42"
   transform="matrix(1,0,0,0.8655172,0,3.6)"
   inkscape:export-xdpi="510.5976"
   inkscape:export-ydpi="510.5976"
   style="opacity:1">
</g>
<g
   id="g44"
   transform="matrix(1,0,0,0.8655172,0,3.6)"
   inkscape:export-xdpi="510.5976"
   inkscape:export-ydpi="510.5976"
   style="opacity:1">
</g>
<g
   id="g46"
   transform="matrix(1,0,0,0.8655172,0,3.6)"
   inkscape:export-xdpi="510.5976"
   inkscape:export-ydpi="510.5976"
   style="opacity:1">
</g>
<g
   id="g48"
   transform="matrix(1,0,0,0.8655172,0,3.6)"
   inkscape:export-xdpi="510.5976"
   inkscape:export-ydpi="510.5976"
   style="opacity:1">
</g>
<g
   id="g50"
   transform="matrix(1,0,0,0.8655172,0,3.6)"
   inkscape:export-xdpi="510.5976"
   inkscape:export-ydpi="510.5976"
   style="opacity:1">
</g>
<path
   inkscape:connector-curvature="0"
   d="m 9.936051,47.351761 v -1.058027 h 0.639845 c 0.700719,0 0.952819,0.411565 0.952819,1.093097 0,1.052071 -0.70138,1.122871 -0.958773,1.122871 H 9.936051 V 47.351761 H 9.5569078 v 1.478194 h 0.9792872 c 0.951497,0 1.371002,-0.539931 1.371002,-1.494736 0,-0.920397 -0.490967,-1.361076 -1.371002,-1.361076 H 9.5569078 v 1.377618 H 9.936051"
   style="fill:#5d6585;fill-opacity:1;fill-rule:nonzero;stroke:none;stroke-width:0.0687194"
   id="path3050" /><path
   inkscape:connector-curvature="0"
   d="m 34.183329,47.351761 v -1.058027 h 0.638522 c 0.699396,0 0.951495,0.411565 0.951495,1.093097 0,1.052071 -0.699395,1.122871 -0.960097,1.122871 h -0.62992 V 47.351761 H 33.8022 v 1.478194 h 0.979951 c 0.950833,0 1.371002,-0.539931 1.371002,-1.494736 0,-0.920397 -0.49163,-1.361076 -1.371002,-1.361076 H 33.8022 v 1.377618 h 0.381129"
   style="fill:#5d6585;fill-opacity:1;fill-rule:nonzero;stroke:none;stroke-width:0.0687194"
   id="path3052" /><path
   inkscape:connector-curvature="0"
   d="m 12.254579,48.829955 v -2.067751 h 0.340766 v 2.067751 z"
   style="fill:#5d6585;fill-opacity:1;fill-rule:nonzero;stroke:none;stroke-width:0.0687194"
   id="path3054" /><path
   inkscape:connector-curvature="0"
   d="m 12.254579,46.391663 v -0.41752 h 0.340766 v 0.41752 z"
   style="fill:#5d6585;fill-opacity:1;fill-rule:nonzero;stroke:none;stroke-width:0.0687194"
   id="path3056" /><path
   inkscape:connector-curvature="0"
   d="m 13.012203,46.762204 h 0.319592 v 0.436047 h 0.0086 c 0.163436,-0.332163 0.391715,-0.496259 0.758946,-0.483688 v 0.359293 c -0.546547,0 -0.747037,0.312975 -0.747037,0.835702 v 0.920397 h -0.340101 v -2.067751"
   style="fill:#5d6585;fill-opacity:1;fill-rule:nonzero;stroke:none;stroke-width:0.0687194"
   id="path3058" /><path
   inkscape:connector-curvature="0"
   d="m 15.082601,47.597244 h -0.621317 c 0.02382,-0.314298 0.23622,-0.58294 0.591542,-0.58294 0.336134,0 0.580294,0.26004 0.596174,0.58294 h -0.566399 v 0.299742 h 0.925692 c 0.0205,-0.498906 -0.203137,-1.182424 -0.935617,-1.182424 -0.563751,0 -0.972008,0.455237 -0.972008,1.075231 0.02054,0.632568 0.333487,1.087803 0.99252,1.087803 0.463838,0 0.792032,-0.248131 0.883344,-0.705352 H 15.64106 c -0.05955,0.269305 -0.25607,0.40495 -0.53596,0.40495 -0.451928,0 -0.655727,-0.320254 -0.643816,-0.680208 h 0.621317 v -0.299742"
   style="fill:#5d6585;fill-opacity:1;fill-rule:nonzero;stroke:none;stroke-width:0.0687194"
   id="path3060" /><path
   inkscape:connector-curvature="0"
   d="m 26.284851,47.597244 h -0.621319 c 0.02318,-0.314298 0.235558,-0.58294 0.591542,-0.58294 0.33481,0 0.57897,0.26004 0.594851,0.58294 h -0.565074 v 0.299742 h 0.925029 c 0.0205,-0.498906 -0.203798,-1.182424 -0.936279,-1.182424 -0.562428,0 -0.969361,0.455237 -0.969361,1.075231 0.01852,0.632568 0.33084,1.087803 0.989874,1.087803 0.465162,0 0.792031,-0.248131 0.885328,-0.705352 h -0.337457 c -0.05955,0.269305 -0.254747,0.40495 -0.535299,0.40495 -0.450604,0 -0.655726,-0.320254 -0.643154,-0.680208 h 0.621319 v -0.299742"
   style="fill:#5d6585;fill-opacity:1;fill-rule:nonzero;stroke:none;stroke-width:0.0687194"
   id="path3062" /><path
   inkscape:connector-curvature="0"
   d="m 17.761746,47.425208 c -0.05161,-0.26004 -0.230927,-0.410904 -0.511479,-0.410904 -0.492291,0 -0.642492,0.389068 -0.642492,0.807912 0,0.378481 0.170713,0.754978 0.603453,0.754978 0.325546,0 0.522065,-0.191226 0.566398,-0.504862 h 0.348706 c -0.0761,0.504862 -0.393039,0.805264 -0.911796,0.805264 -0.632566,0 -0.967377,-0.438694 -0.967377,-1.05538 0,-0.620656 0.320253,-1.107653 0.975978,-1.107653 0.467808,0 0.843643,0.221001 0.891283,0.710645 h -0.352674"
   style="fill:#5d6585;fill-opacity:1;fill-rule:nonzero;stroke:none;stroke-width:0.0687194"
   id="path3064" /><path
   inkscape:connector-curvature="0"
   d="m 18.896527,46.762204 h 0.412227 v 0.299741 h -0.412227 v 1.282999 c 0,0.15814 0.04366,0.181961 0.25607,0.181961 h 0.156157 v 0.30305 h -0.26004 c -0.352677,0 -0.49229,-0.07213 -0.49229,-0.45325 v -1.31476 h -0.351353 v -0.299741 h 0.351353 v -0.619995 h 0.340103 v 0.619995"
   style="fill:#5d6585;fill-opacity:1;fill-rule:nonzero;stroke:none;stroke-width:0.0687194"
   id="path3066" /><path
   inkscape:connector-curvature="0"
   d="m 22.218162,46.809845 c -0.04303,-0.408918 -0.31562,-0.583602 -0.707335,-0.583602 -0.318931,0 -0.639846,0.116456 -0.639846,0.48832 0,0.351353 0.456559,0.404287 0.915104,0.508833 0.455237,0.10256 0.912458,0.262687 0.912458,0.822468 0,0.608084 -0.595512,0.850259 -1.116255,0.850259 -0.638521,0 -1.179115,-0.310328 -1.179115,-1.006416 h 0.359293 c 0,0.479057 0.399654,0.687487 0.832394,0.687487 0.344074,0 0.723878,-0.107855 0.723878,-0.518758 0,-0.392376 -0.45656,-0.461192 -0.912458,-0.560443 -0.455236,-0.09991 -0.915104,-0.231589 -0.915104,-0.754977 0,-0.580296 0.51545,-0.83835 1.03553,-0.83835 0.583603,0 1.026928,0.278567 1.051411,0.905179 h -0.359955"
   style="fill:#5d6585;fill-opacity:1;fill-rule:nonzero;stroke:none;stroke-width:0.0687194"
   id="path3068" /><path
   inkscape:connector-curvature="0"
   d="m 23.491897,46.762204 h 0.413551 v 0.299741 h -0.413551 v 1.282999 c 0,0.15814 0.04701,0.181961 0.256732,0.181961 h 0.156819 v 0.30305 h -0.25938 c -0.352675,0 -0.49229,-0.07213 -0.49229,-0.45325 v -1.31476 h -0.352013 v -0.299741 h 0.352013 v -0.619995 h 0.338119 v 0.619995"
   style="fill:#5d6585;fill-opacity:1;fill-rule:nonzero;stroke:none;stroke-width:0.0687194"
   id="path3070" /><path
   inkscape:connector-curvature="0"
   d="M 24.188647,46.762204 H 24.5089 v 0.436047 h 0.0066 c 0.164759,-0.332163 0.3937,-0.496259 0.761594,-0.483688 v 0.359293 c -0.548534,0 -0.748361,0.312975 -0.748361,0.835702 v 0.920397 h -0.340102 v -2.067751"
   style="fill:#5d6585;fill-opacity:1;fill-rule:nonzero;stroke:none;stroke-width:0.0687194"
   id="path3072" /><path
   inkscape:connector-curvature="0"
   d="m 28.815116,47.890368 v -0.127703 c -0.131674,0.09594 -0.387744,0.09925 -0.616024,0.138291 -0.223648,0.04171 -0.416197,0.120426 -0.416197,0.372525 0,0.225635 0.192549,0.303713 0.400316,0.303713 0.447958,0 0.631905,-0.280552 0.631905,-0.466485 v -0.220341 h 0.33878 v 0.454576 c 0,0.160125 0,0.23225 0.108516,0.23225 0.02779,0 0.06088,-0.0037 0.104546,-0.01852 v 0.262687 c -0.05955,0.03504 -0.136969,0.05624 -0.244161,0.05624 -0.177329,0 -0.287831,-0.09528 -0.287831,-0.318929 -0.187917,0.219016 -0.440018,0.318929 -0.726525,0.318929 -0.376496,0 -0.684839,-0.167405 -0.684839,-0.580955 0,-0.465161 0.347382,-0.567722 0.700058,-0.635214 0.375172,-0.07212 0.695426,-0.04764 0.695426,-0.304372 0,-0.29511 -0.24416,-0.342752 -0.46053,-0.342752 -0.287831,0 -0.498245,0.08933 -0.516109,0.390392 h -0.338782 c 0.02049,-0.510156 0.416198,-0.690132 0.874742,-0.690132 0.372526,0 0.775489,0.08403 0.775489,0.568384 v 0.607422 h -0.33878"
   style="fill:#5d6585;fill-opacity:1;fill-rule:nonzero;stroke:none;stroke-width:0.0687194"
   id="path3074" /><path
   inkscape:connector-curvature="0"
   d="m 42.769953,47.890368 v -0.127703 c -0.131673,0.09594 -0.387742,0.09925 -0.616022,0.138291 -0.222988,0.04171 -0.416199,0.120426 -0.416199,0.372525 0,0.225635 0.193211,0.303713 0.400318,0.303713 0.448621,0 0.631903,-0.280552 0.631903,-0.466485 v -0.220341 h 0.340766 v 0.454576 c 0,0.160125 0,0.23225 0.107854,0.23225 0.0271,0 0.05955,-0.0037 0.104546,-0.01852 v 0.262687 c -0.06087,0.03504 -0.137628,0.05624 -0.24416,0.05624 -0.176007,0 -0.288493,-0.09528 -0.288493,-0.318929 -0.187254,0.219016 -0.440679,0.318929 -0.727184,0.318929 -0.376499,0 -0.684178,-0.167405 -0.684178,-0.580955 0,-0.465161 0.346719,-0.567722 0.698073,-0.635214 0.377155,-0.07212 0.697408,-0.04764 0.697408,-0.304372 0,-0.29511 -0.243497,-0.342752 -0.459202,-0.342752 -0.289816,0 -0.500235,0.08933 -0.517435,0.390392 h -0.33812 c 0.01916,-0.510156 0.415536,-0.690132 0.87474,-0.690132 0.371868,0 0.776151,0.08403 0.776151,0.568384 v 0.607422 h -0.340766"
   style="fill:#5d6585;fill-opacity:1;fill-rule:nonzero;stroke:none;stroke-width:0.0687194"
   id="path3076" /><path
   inkscape:connector-curvature="0"
   d="m 29.583988,46.762204 h 0.319592 v 0.303712 h 0.0066 c 0.15351,-0.23159 0.38576,-0.351353 0.66896,-0.351353 0.252099,0 0.483687,0.09925 0.569044,0.351353 0.138292,-0.221002 0.383112,-0.351353 0.6458,-0.351353 0.412888,0 0.688148,0.172037 0.688148,0.599481 v 1.515911 H 32.142028 V 47.47351 c 0,-0.254746 -0.06749,-0.459206 -0.398332,-0.459206 -0.329516,0 -0.539931,0.209092 -0.539931,0.52736 v 1.288291 H 30.86366 V 47.47351 c 0,-0.267318 -0.0847,-0.459206 -0.387745,-0.459206 -0.402964,0 -0.551842,0.372527 -0.551842,0.52736 v 1.288291 h -0.340102 v -2.067751"
   style="fill:#5d6585;fill-opacity:1;fill-rule:nonzero;stroke:none;stroke-width:0.0687194"
   id="path3078" /><path
   inkscape:connector-curvature="0"
   d="m 36.501856,48.829955 v -2.067751 h 0.340104 v 2.067751 z"
   style="fill:#5d6585;fill-opacity:1;fill-rule:nonzero;stroke:none;stroke-width:0.0687194"
   id="path3080" /><path
   inkscape:connector-curvature="0"
   d="m 36.501856,46.391663 v -0.41752 h 0.340104 v 0.41752 z"
   style="fill:#5d6585;fill-opacity:1;fill-rule:nonzero;stroke:none;stroke-width:0.0687194"
   id="path3082" /><path
   inkscape:connector-curvature="0"
   d="m 37.537386,47.765974 c 0,0.371862 0.135644,0.786075 0.583602,0.786075 0.447296,0 0.615363,-0.410903 0.615363,-0.797324 0,-0.363925 -0.160127,-0.740421 -0.587573,-0.740421 -0.436046,0 -0.611392,0.35466 -0.611392,0.75167 l -0.360614,0.04038 c 0,-0.48832 0.24019,-1.091773 0.954804,-1.091773 0.261364,0 0.492292,0.115133 0.616686,0.345397 h -0.0037 0.0079 v -0.297751 h 0.320252 v 1.891744 c 0,0.670281 -0.309666,1.014355 -0.960097,1.014355 -0.387747,0 -0.836365,-0.154172 -0.854229,-0.606762 h 0.33875 c 0.0165,0.248132 0.312313,0.334149 0.534638,0.334149 0.44465,0 0.620657,-0.317605 0.620657,-0.783429 v -0.13366 h -0.0079 c -0.111163,0.252102 -0.383777,0.37385 -0.643816,0.37385 -0.614699,0 -0.923706,-0.483689 -0.923706,-1.046117 l 0.360616,-0.04038"
   style="fill:#5d6585;fill-opacity:1;fill-rule:nonzero;stroke:none;stroke-width:0.0687194"
   id="path3084" /><path
   inkscape:connector-curvature="0"
   d="m 39.523752,48.829955 v -2.067751 h 0.340103 v 2.067751 z"
   style="fill:#5d6585;fill-opacity:1;fill-rule:nonzero;stroke:none;stroke-width:0.0687194"
   id="path3086" /><path
   inkscape:connector-curvature="0"
   d="m 39.523752,46.391663 v -0.41752 h 0.340103 v 0.41752 z"
   style="fill:#5d6585;fill-opacity:1;fill-rule:nonzero;stroke:none;stroke-width:0.0687194"
   id="path3088" /><path
   inkscape:connector-curvature="0"
   d="m 40.800133,46.762204 h 0.41289 v 0.299741 h -0.41289 v 1.282999 c 0,0.15814 0.04568,0.181961 0.256071,0.181961 h 0.156819 v 0.30305 h -0.260704 c -0.350692,0 -0.491627,-0.07213 -0.491627,-0.45325 v -1.31476 h -0.351353 v -0.299741 h 0.351353 v -0.619995 h 0.339441 v 0.619995"
   style="fill:#5d6585;fill-opacity:1;fill-rule:nonzero;stroke:none;stroke-width:0.0687194"
   id="path3090" /><path
   inkscape:connector-curvature="0"
   d="M 43.576544,48.829955 V 45.97348 h 0.340104 v 2.856475 z"
   style="fill:#5d6585;fill-opacity:1;fill-rule:nonzero;stroke:none;stroke-width:0.0687194"
   id="path3092" /><path
   inkscape:connector-curvature="0"
   d="m 19.651504,38.022729 c 0,-3.06358 -0.962082,-4.685357 -2.804863,-4.685357 -0.596835,0 -0.907164,0.232248 -0.936939,1.001121 -0.09661,2.522987 -0.09661,5.683172 0,7.936195 0.02981,0.683516 0.24813,1.011047 0.936939,1.011047 1.85469,0 2.804863,-1.774627 2.804863,-5.263006 l 2.350289,0.220339 c 0,3.959496 -2.127301,5.849255 -5.673247,5.849255 h -2.794939 c 0.225633,-2.843901 0.298419,-8.531706 0,-11.582715 H 16.2948 c 3.188638,0 5.706993,0.99186 5.706993,5.73346 l -2.350289,-0.220339"
   style="fill:#5d6585;fill-opacity:1;fill-rule:nonzero;stroke:none;stroke-width:0.0687194"
   id="path3094" /><path
   inkscape:connector-curvature="0"
   d="m 38.465063,38.022729 c 0,-3.06358 -0.961423,-4.685357 -2.804202,-4.685357 -0.596836,0 -0.909148,0.232248 -0.938264,1.001121 -0.09594,2.522987 -0.09594,5.683172 0,7.936195 0.02912,0.683516 0.250779,1.011047 0.938264,1.011047 1.85469,0 2.804202,-1.774627 2.804202,-5.263006 l 2.350949,0.220339 c 0,3.959496 -2.1273,5.849255 -5.673246,5.849255 h -2.794277 c 0.226296,-2.843901 0.297095,-8.531706 0,-11.582715 h 2.759207 c 3.189301,0 5.708316,0.99186 5.708316,5.73346 l -2.350949,-0.220339"
   style="fill:#5d6585;fill-opacity:1;fill-rule:nonzero;stroke:none;stroke-width:0.0687194"
   id="path3096" /><path
   inkscape:connector-curvature="0"
   d="m 23.392645,34.871808 c 0,3.5208 6.653196,3.399052 6.653196,6.499024 0.0011,1.86263 -1.004429,2.927936 -3.497641,2.927936 -1.766026,0 -2.833978,-0.363924 -3.453311,-0.616024 v -2.357568 c 0,-0.196519 0.124396,-0.200488 0.221663,-0.02118 0.652416,1.22477 1.742866,2.225893 2.946464,2.225893 1.301524,0 1.907623,-0.74042 1.907623,-1.863293 0,-2.464759 -5.108834,-2.493872 -5.108834,-6.037833 0,-0.265333 0.06484,-0.684177 0.08867,-0.773504 0.04833,-0.185931 0.242175,-0.174022 0.242175,0.01652"
   style="fill:#5d6585;fill-opacity:1;fill-rule:nonzero;stroke:none;stroke-width:0.0687194"
   id="path3098" /><path
   inkscape:connector-curvature="0"
   d="m 31.007925,39.861539 c 0,-3.385818 -5.269622,-3.453971 -5.269622,-5.597816 0,-0.911795 0.809897,-1.224107 1.775949,-1.224107 1.21286,0 2.167004,0.792692 2.709582,1.679344 0.115131,0.138952 0.238866,0.121748 0.238866,-0.0847 v -1.83484 c -0.422152,-0.183284 -1.623102,-0.569706 -2.876324,-0.569706 -2.09091,0 -3.675635,0.627935 -3.675635,2.218614 0,3.133719 6.711424,3.078137 6.711424,6.323018 0,0.299079 -0.0172,0.438032 -0.03637,0.603452 -0.01652,0.165421 0.173359,0.22828 0.236882,0.03573 0.107853,-0.324886 0.18527,-0.80725 0.18527,-1.548994"
   style="fill:#5d6585;fill-opacity:1;fill-rule:nonzero;stroke:none;stroke-width:0.0687194"
   id="path3100" /></svg>
